<svg xmlns="http://www.w3.org/2000/svg" xmlns:xlink="http://www.w3.org/1999/xlink" xmlns:lucid="lucid" width="908" height="1111"><g transform="translate(-9 -80)" lucid:page-tab-id="0_0"><path d="M737 306c0-3.3 2.7-6 6-6h148c3.3 0 6 2.7 6 6v108c0 3.3-2.7 6-6 6H743c-3.3 0-6-2.7-6-6z" stroke="#5e5e5e" stroke-width="3" fill="#fff"/><use xlink:href="#a" transform="matrix(1,0,0,1,737,300) translate(32.55499999999999 63.15)"/><path d="M817 422.5v4.05m0 8.1v8.08m0 8.1v8.1m0 8.08v8.1m0 8.1v8.1m0 8.08v8.1m0 8.08v8.1m0 8.1v8.08m0 8.1V556m0 8.1v8.1m0 8.08v8.1m0 8.1v8.08m0 8.1v8.08m0 8.1v8.1m0 8.08v8.1m0 8.1v8.08m0 8.1v8.08m0 8.1v8.1m0 8.08v8.1m0 8.08v8.1m0 8.1v8.08m0 8.1v8.1m0 8.08v8.1m0 8.08v4.05l-.82 3.03-2.15 2.15-3.03.82h-5l-3.03.82-2.15 2.15-.82 3.03v4.05m0 8.1v8.08m0 8.1v8.1m0 8.08v8.1m0 8.08v8.1m0 8.1v8.08m0 8.1v8.08m0 8.1v8.1m0 8.08v8.1m0 8.1v8.08m0 8.1v8.08m0 8.1v8.1m0 8.08v8.1m0 8.1v8.08m0 8.1v8.08m0 8.1v8.1m0 8.08v8.1m0 8.1v8.08m0 8.1v8.08m0 8.1v8.1m0 8.08v8.1m0 8.08v8.1m0 8.1v8.08m0 8.1v4.04" stroke="#5e5e5e" stroke-width="2" fill="none"/><path d="M818 422.53h-2v-1.03h2z" stroke="#5e5e5e" stroke-width=".05" fill="#5e5e5e"/><path d="M800 1178.97v1.03" stroke="#5e5e5e" stroke-width="2" fill="none"/><path d="M140 106c0-3.3 2.7-6 6-6h148c3.3 0 6 2.7 6 6v108c0 3.3-2.7 6-6 6H146c-3.3 0-6-2.7-6-6z" stroke="#5e5e5e" stroke-width="3" fill="#fff"/><use xlink:href="#b" transform="matrix(1,0,0,1,140,100) translate(60.555 63.15)"/><path d="M220 222.5v4m0 7.96v7.97m0 7.97v7.97m0 7.97v7.97m0 7.98v7.97m0 7.97v7.97m0 7.96v7.98m0 7.97v7.98m0 7.97v7.97m0 7.97v7.96m0 7.97v7.97m0 7.97v7.97m0 7.97v8m0 7.96v7.97m0 7.97v7.97m0 7.97v7.97m0 7.98v7.97m0 7.97v7.97m0 7.96v7.98m0 7.97v7.98m0 7.97v7.97m0 7.97v7.96m0 7.97v7.97m0 7.97v7.97m0 7.97v8m0 7.96v7.97m0 7.97v7.97m0 7.97v7.97m0 7.98v7.97m0 7.97v7.97m0 7.96v7.98m0 7.97v7.98m0 7.97v7.97m0 7.97v7.96m0 7.97v7.97m0 7.97v7.97m0 7.97v8m0 7.96v7.97m0 7.97v7.97m0 7.97v7.97m0 7.98v7.97m0 7.97v7.97m0 7.96v7.98m0 7.97V912m0 7.97v7.97m0 7.97v7.96m0 7.97v7.97m0 7.97v7.97m0 7.97v8m0 7.96v7.97m0 7.97v7.97m0 7.97v7.97m0 7.98v7.97m0 7.97v7.97m0 7.96v7.98m0 7.97v7.98m0 7.97v7.97m0 7.97v7.96m0 7.97v7.97m0 7.97v7.97m0 7.97v4" stroke="#5e5e5e" stroke-width="2" fill="none"/><path d="M221 222.53h-2v-1.03h2z" stroke="#5e5e5e" stroke-width=".05" fill="#5e5e5e"/><path d="M220 1178.97v1.03" stroke="#5e5e5e" stroke-width="2" fill="none"/><path d="M200 306c0-3.3 2.7-6 6-6h28c3.3 0 6 2.7 6 6v808c0 3.3-2.7 6-6 6h-28c-3.3 0-6-2.7-6-6z" stroke="#5e5e5e" stroke-width="3" fill="#fff"/><path d="M180.97 302.2H70.67" stroke="#5e5e5e" stroke-width="2" fill="none"/><path d="M196.24 302.2l-14.27 4.63v-9.27zM71 302.2c0 8.28-6.7 15-15 15-8.28 0-15-6.72-15-15 0-8.3 6.72-15 15-15 8.3 0 15 6.7 15 15z" stroke="#5e5e5e" stroke-width="2" fill="#5e5e5e"/><path d="M498.5 426c0-3.3 2.7-6 6-6h148c3.3 0 6 2.7 6 6v108c0 3.3-2.7 6-6 6h-148c-3.3 0-6-2.7-6-6z" stroke="#5e5e5e" stroke-width="3" fill="#fff"/><use xlink:href="#c" transform="matrix(1,0,0,1,498.5,420) translate(53.555 63.15)"/><path d="M578.5 542.5v3.98m0 7.95v7.96m0 7.95v7.95m0 7.96v7.96m0 7.95v7.96m0 7.95v7.96m0 7.96v7.95m0 7.96v7.97m0 7.95v7.96m0 7.95v7.96m0 7.95v7.95m0 7.96v7.96m0 7.95v7.96m0 7.95v7.96m0 7.96v7.95m0 7.96v7.97m0 7.95v7.96m0 7.95V817m0 7.95v7.95m0 7.96v7.96m0 7.95v7.96m0 7.95v7.96m0 7.96v7.95m0 7.96v7.97m0 7.95v7.96m0 7.95v7.96m0 7.95v7.95m0 7.96v7.96m0 7.95v7.96m0 7.95v7.96m0 7.96v7.95m0 7.96v7.97m0 7.95v7.96m0 7.95v7.96m0 7.95v7.95m0 7.96v7.96m0 7.95v7.96m0 7.95v7.96m0 7.96v7.95m0 7.96v7.97m0 7.95v3.98" stroke="#5e5e5e" stroke-width="2" fill="none"/><path d="M579.5 542.53h-2v-1.03h2z" stroke="#5e5e5e" stroke-width=".05" fill="#5e5e5e"/><path d="M578.5 1178.97v1.03M242.5 357.14h4.1m8.2 0h8.2m8.2 0h8.2m8.2 0h8.2m8.2 0h8.2m8.2 0h8.2m8.2 0h8.2m8.2 0h8.2m8.2 0h8.2m8.2 0h8.2m8.2 0h8.2m8.2 0h8.2m8.2 0h8.2m8.2 0h8.2m8.2 0h8.2m8.2 0h8.18m8.16 0h8.16m8.16 0h8.16m8.16 0h8.16m8.16 0h8.17m8.16 0h8.16m8.15 0h8.16m8.17 0h8.16m8.16 0h8.15m8.16 0h8.17m8.16 0h8.16m8.15 0h8.16m8.17 0h8.16m8.17 0h8.16m8.16 0H717" stroke="#5e5e5e" stroke-width="2" fill="none"/><path d="M242.53 358.14h-1.03v-2h1.03z" stroke="#5e5e5e" stroke-width=".05" fill="#5e5e5e"/><path d="M732.26 357.14L718 361.77v-9.27z" stroke="#5e5e5e" stroke-width="2" fill="#5e5e5e"/><use xlink:href="#d" transform="matrix(1,0,0,1,320.5915777032669,331.8045438779048) translate(0 14.222222222222223)"/><path d="M242.5 477.8h3.96m7.92 0h7.92m7.93 0h7.92m7.92 0H294m7.9 0h7.94m7.92 0h7.92m7.92 0h7.92m7.93 0h7.92m7.92 0h7.85m7.8 0h7.8m7.8 0h7.82m7.8 0h7.8m7.8 0h7.8m7.8 0h7.82m7.8 0h7.8m7.8 0h3.9" stroke="#5e5e5e" stroke-width="2" fill="none"/><path d="M242.53 478.8h-1.03v-2h1.03z" stroke="#5e5e5e" stroke-width=".05" fill="#5e5e5e"/><path d="M493.76 477.8l-14.26 4.65v-9.27z" stroke="#5e5e5e" stroke-width="2" fill="#5e5e5e"/><use xlink:href="#e" transform="matrix(1,0,0,1,323.34876543209873,452.4812695109259) translate(0 14.222222222222223)"/><path d="M558.5 586c0-3.3 2.7-6 6-6h28c3.3 0 6 2.7 6 6v488c0 3.3-2.7 6-6 6h-28c-3.3 0-6-2.7-6-6z" stroke="#5e5e5e" stroke-width="3" fill="#fff"/><path d="M242.5 582.13h297.04" stroke="#5e5e5e" stroke-width="2" fill="none"/><path d="M242.53 583.13h-1.03v-2h1.03z" stroke="#5e5e5e" stroke-width=".05" fill="#5e5e5e"/><path d="M554.8 582.13l-14.26 4.63v-9.27z" stroke="#5e5e5e" stroke-width="2" fill="#5e5e5e"/><use xlink:href="#f" transform="matrix(1,0,0,1,319.8942138461736,556.7938407409848) translate(0 14.222222222222223)"/><path d="M538.5 662.1H349.17" stroke="#5e5e5e" stroke-width="2" fill="none"/><path d="M553.76 662.1l-14.26 4.63v-9.27zM349.5 662.1c0 8.28-6.72 15-15 15-8.28 0-15-6.72-15-15 0-8.3 6.72-15 15-15 8.28 0 15 6.7 15 15z" stroke="#5e5e5e" stroke-width="2" fill="#5e5e5e"/><use xlink:href="#g" transform="matrix(1,0,0,1,402.8117283950617,636.7578910856746) translate(0 14.222222222222223)"/><path d="M601 707.75h177.5" stroke="#5e5e5e" stroke-width="2" fill="none"/><path d="M601.03 708.75H600v-2h1.03z" stroke="#5e5e5e" stroke-width=".05" fill="#5e5e5e"/><path d="M793.76 707.75l-14.26 4.64v-9.28z" stroke="#5e5e5e" stroke-width="2" fill="#5e5e5e"/><use xlink:href="#h" transform="matrix(1,0,0,1,682.7469135802469,682.4193548387096) translate(0 14.222222222222223)"/><path d="M798.5 706c0-3.3 2.7-6 6-6h28c3.3 0 6 2.7 6 6v108c0 3.3-2.7 6-6 6h-28c-3.3 0-6-2.7-6-6z" stroke="#5e5e5e" stroke-width="3" fill="#fff"/><path d="M796.98 817.8h-4.06m-8.1 0h-8.13m-8.12 0h-8.1m-8.12 0h-8.12m-8.1 0H728m-8.1 0h-8.12m-8.12 0h-8.1m-8.12 0h-8.1m-8.13 0h-8.1m-8.12 0h-8.1m-8.12 0h-8.1m-8.12 0h-4.06" stroke="#5e5e5e" stroke-width="2" fill="none"/><path d="M797.98 817.8l1 1h-2.03v-2h.76z" stroke="#5e5e5e" stroke-width=".05" fill="#5e5e5e"/><path d="M603.24 817.8l14.26-4.63v9.27z" stroke="#5e5e5e" stroke-width="2" fill="#5e5e5e"/><path d="M538.5 870.83H349.17" stroke="#5e5e5e" stroke-width="2" fill="none"/><path d="M553.76 870.83l-14.26 4.63v-9.27zM349.5 870.83c0 8.28-6.72 15-15 15-8.28 0-15-6.72-15-15 0-8.28 6.72-15 15-15 8.28 0 15 6.72 15 15z" stroke="#5e5e5e" stroke-width="2" fill="#5e5e5e"/><use xlink:href="#i" transform="matrix(1,0,0,1,405.23148148148147,874.8293444328825) translate(0 14.222222222222223)"/><path d="M798.5 906c0-3.3 2.7-6 6-6h28c3.3 0 6 2.7 6 6v108c0 3.3-2.7 6-6 6h-28c-3.3 0-6-2.7-6-6z" stroke="#5e5e5e" stroke-width="3" fill="#fff"/><path d="M601 896.92h183.75" stroke="#5e5e5e" stroke-width="2" fill="none"/><path d="M601.03 897.92H600v-2h1.03z" stroke="#5e5e5e" stroke-width=".05" fill="#5e5e5e"/><path d="M797.35 899.1l-14.85 2.14 1.57-9.14z" stroke="#5e5e5e" stroke-width="2" fill="#5e5e5e"/><use xlink:href="#j" transform="matrix(1,0,0,1,670.9385092688942,871.5882761012833) translate(0 14.222222222222223)"/><path d="M796.88 1017.45h-4.08m-8.16 0h-8.17m-8.16 0h-8.15m-8.16 0h-8.17m-8.16 0h-8.16m-8.16 0h-8.16m-8.16 0h-8.1m-8.05 0h-8.04m-8.04 0h-8.06m-8.04 0h-8.04m-8.05 0h-8.03m-8.05 0h-4.02" stroke="#5e5e5e" stroke-width="2" fill="none"/><path d="M797.98 1017.8l.64.65h-1.77v-2h.76z" stroke="#5e5e5e" stroke-width=".05" fill="#5e5e5e"/><path d="M603.24 1017.45l14.26-4.64v9.28z" stroke="#5e5e5e" stroke-width="2" fill="#5e5e5e"/><defs><path d="M197 0v-115H63V0H30v-248h33v105h134v-105h34V0h-34" id="k"/><path d="M100-194c63 0 86 42 84 106H49c0 40 14 67 53 68 26 1 43-12 49-29l28 8c-11 28-37 45-77 45C44 4 14-33 15-96c1-61 26-98 85-98zm52 81c6-60-76-77-97-28-3 7-6 17-6 28h103" id="l"/><path d="M141 0L90-78 38 0H4l68-98-65-92h35l48 74 47-74h35l-64 92 68 98h-35" id="m"/><path d="M185-189c-5-48-123-54-124 2 14 75 158 14 163 119 3 78-121 87-175 55-17-10-28-26-33-46l33-7c5 56 141 63 141-1 0-78-155-14-162-118-5-82 145-84 179-34 5 7 8 16 11 25" id="n"/><path d="M59-47c-2 24 18 29 38 22v24C64 9 27 4 27-40v-127H5v-23h24l9-43h21v43h35v23H59v120" id="o"/><path d="M100-194c62-1 85 37 85 99 1 63-27 99-86 99S16-35 15-95c0-66 28-99 85-99zM99-20c44 1 53-31 53-75 0-43-8-75-51-75s-53 32-53 75 10 74 51 75" id="p"/><path d="M114-163C36-179 61-72 57 0H25l-1-190h30c1 12-1 29 2 39 6-27 23-49 58-41v29" id="q"/><path d="M141-36C126-15 110 5 73 4 37 3 15-17 15-53c-1-64 63-63 125-63 3-35-9-54-41-54-24 1-41 7-42 31l-33-3c5-37 33-52 76-52 45 0 72 20 72 64v82c-1 20 7 32 28 27v20c-31 9-61-2-59-35zM48-53c0 20 12 33 32 33 41-3 63-29 60-74-43 2-92-5-92 41" id="r"/><path d="M177-190C167-65 218 103 67 71c-23-6-38-20-44-43l32-5c15 47 100 32 89-28v-30C133-14 115 1 83 1 29 1 15-40 15-95c0-56 16-97 71-98 29-1 48 16 59 35 1-10 0-23 2-32h30zM94-22c36 0 50-32 50-73 0-42-14-75-50-75-39 0-46 34-46 75s6 73 46 73" id="s"/><g id="a"><use transform="matrix(0.05,0,0,0.05,0,0)" xlink:href="#k"/><use transform="matrix(0.05,0,0,0.05,12.950000000000001,0)" xlink:href="#l"/><use transform="matrix(0.05,0,0,0.05,22.950000000000003,0)" xlink:href="#m"/><use transform="matrix(0.05,0,0,0.05,31.950000000000003,0)" xlink:href="#n"/><use transform="matrix(0.05,0,0,0.05,43.95,0)" xlink:href="#o"/><use transform="matrix(0.05,0,0,0.05,48.95,0)" xlink:href="#p"/><use transform="matrix(0.05,0,0,0.05,58.95,0)" xlink:href="#q"/><use transform="matrix(0.05,0,0,0.05,64.9,0)" xlink:href="#r"/><use transform="matrix(0.05,0,0,0.05,74.9,0)" xlink:href="#s"/><use transform="matrix(0.05,0,0,0.05,84.9,0)" xlink:href="#l"/><path d="M-.9 1.25h96.7v1.32H-.9z"/></g><path d="M240 0l2-218c-23 76-54 145-80 218h-23L58-218 59 0H30v-248h44l77 211c21-75 51-140 76-211h43V0h-30" id="t"/><path d="M24-231v-30h32v30H24zM24 0v-190h32V0H24" id="u"/><path d="M117-194c89-4 53 116 60 194h-32v-121c0-31-8-49-39-48C34-167 62-67 57 0H25l-1-190h30c1 10-1 24 2 32 11-22 29-35 61-36" id="v"/><g id="b"><use transform="matrix(0.05,0,0,0.05,0,0)" xlink:href="#t"/><use transform="matrix(0.05,0,0,0.05,14.950000000000001,0)" xlink:href="#r"/><use transform="matrix(0.05,0,0,0.05,24.950000000000003,0)" xlink:href="#u"/><use transform="matrix(0.05,0,0,0.05,28.900000000000002,0)" xlink:href="#v"/><path d="M-.9 1.25h40.7v1.32H-.9z"/></g><path d="M108 0H70L1-190h34L89-25l56-165h34" id="w"/><g id="c"><use transform="matrix(0.05,0,0,0.05,0,0)" xlink:href="#n"/><use transform="matrix(0.05,0,0,0.05,12,0)" xlink:href="#l"/><use transform="matrix(0.05,0,0,0.05,22,0)" xlink:href="#q"/><use transform="matrix(0.05,0,0,0.05,27.950000000000003,0)" xlink:href="#w"/><use transform="matrix(0.05,0,0,0.05,36.95,0)" xlink:href="#l"/><use transform="matrix(0.05,0,0,0.05,46.95,0)" xlink:href="#q"/><path d="M-.9 1.25h54.7v1.32H-.9z"/></g><path fill="#333" d="M175 0L67-191c6 58 2 128 3 191H24v-248h59L193-55c-6-58-2-129-3-193h46V0h-61" id="x"/><path fill="#333" d="M185-48c-13 30-37 53-82 52C43 2 14-33 14-96s30-98 90-98c62 0 83 45 84 108H66c0 31 8 55 39 56 18 0 30-7 34-22zm-45-69c5-46-57-63-70-21-2 6-4 13-4 21h74" id="y"/><path fill="#333" d="M231 0h-52l-39-155L100 0H48L-1-190h46L77-45c9-52 24-97 36-145h53l37 145 32-145h46" id="z"/><path fill="#333" d="M186 0v-106H76V0H24v-248h52v99h110v-99h50V0h-50" id="A"/><path fill="#333" d="M144 0l-44-69L55 0H2l70-98-66-92h53l41 62 40-62h54l-67 91 71 99h-54" id="B"/><path fill="#333" d="M169-182c-1-43-94-46-97-3 18 66 151 10 154 114 3 95-165 93-204 36-6-8-10-19-12-30l50-8c3 46 112 56 116 5-17-69-150-10-154-114-4-87 153-88 188-35 5 8 8 18 10 28" id="C"/><path fill="#333" d="M115-3C79 11 28 4 28-45v-112H4v-33h27l15-45h31v45h36v33H77v99c-1 23 16 31 38 25v30" id="D"/><path fill="#333" d="M110-194c64 0 96 36 96 99 0 64-35 99-97 99-61 0-95-36-95-99 0-62 34-99 96-99zm-1 164c35 0 45-28 45-65 0-40-10-65-43-65-34 0-45 26-45 65 0 36 10 65 43 65" id="E"/><path fill="#333" d="M135-150c-39-12-60 13-60 57V0H25l-1-190h47c2 13-1 29 3 40 6-28 27-53 61-41v41" id="F"/><path fill="#333" d="M133-34C117-15 103 5 69 4 32 3 11-16 11-54c-1-60 55-63 116-61 1-26-3-47-28-47-18 1-26 9-28 27l-52-2c7-38 36-58 82-57s74 22 75 68l1 82c-1 14 12 18 25 15v27c-30 8-71 5-69-32zm-48 3c29 0 43-24 42-57-32 0-66-3-65 30 0 17 8 27 23 27" id="G"/><path fill="#333" d="M195-6C206 82 75 100 31 46c-4-6-6-13-8-21l49-6c3 16 16 24 34 25 40 0 42-37 40-79-11 22-30 35-61 35-53 0-70-43-70-97 0-56 18-96 73-97 30 0 46 14 59 34l2-30h47zm-90-29c32 0 41-27 41-63 0-35-9-62-40-62-32 0-39 29-40 63 0 36 9 62 39 62" id="H"/><g id="d"><use transform="matrix(0.04938271604938272,0,0,0.04938271604938272,0,0)" xlink:href="#x"/><use transform="matrix(0.04938271604938272,0,0,0.04938271604938272,12.790123456790125,0)" xlink:href="#y"/><use transform="matrix(0.04938271604938272,0,0,0.04938271604938272,22.66666666666667,0)" xlink:href="#z"/><use transform="matrix(0.04938271604938272,0,0,0.04938271604938272,36.49382716049384,0)" xlink:href="#A"/><use transform="matrix(0.04938271604938272,0,0,0.04938271604938272,49.28395061728396,0)" xlink:href="#y"/><use transform="matrix(0.04938271604938272,0,0,0.04938271604938272,59.16049382716051,0)" xlink:href="#B"/><use transform="matrix(0.04938271604938272,0,0,0.04938271604938272,69.03703703703705,0)" xlink:href="#C"/><use transform="matrix(0.04938271604938272,0,0,0.04938271604938272,80.8888888888889,0)" xlink:href="#D"/><use transform="matrix(0.04938271604938272,0,0,0.04938271604938272,86.76543209876544,0)" xlink:href="#E"/><use transform="matrix(0.04938271604938272,0,0,0.04938271604938272,97.58024691358025,0)" xlink:href="#F"/><use transform="matrix(0.04938271604938272,0,0,0.04938271604938272,104.49382716049384,0)" xlink:href="#G"/><use transform="matrix(0.04938271604938272,0,0,0.04938271604938272,114.37037037037038,0)" xlink:href="#H"/><use transform="matrix(0.04938271604938272,0,0,0.04938271604938272,125.18518518518519,0)" xlink:href="#y"/></g><path fill="#333" d="M128 0H69L1-190h53L99-40l48-150h52" id="I"/><g id="e"><use transform="matrix(0.04938271604938272,0,0,0.04938271604938272,0,0)" xlink:href="#x"/><use transform="matrix(0.04938271604938272,0,0,0.04938271604938272,12.790123456790125,0)" xlink:href="#y"/><use transform="matrix(0.04938271604938272,0,0,0.04938271604938272,22.66666666666667,0)" xlink:href="#z"/><use transform="matrix(0.04938271604938272,0,0,0.04938271604938272,36.49382716049384,0)" xlink:href="#C"/><use transform="matrix(0.04938271604938272,0,0,0.04938271604938272,48.34567901234569,0)" xlink:href="#y"/><use transform="matrix(0.04938271604938272,0,0,0.04938271604938272,58.222222222222236,0)" xlink:href="#F"/><use transform="matrix(0.04938271604938272,0,0,0.04938271604938272,65.13580246913581,0)" xlink:href="#I"/><use transform="matrix(0.04938271604938272,0,0,0.04938271604938272,75.01234567901236,0)" xlink:href="#y"/><use transform="matrix(0.04938271604938272,0,0,0.04938271604938272,84.8888888888889,0)" xlink:href="#F"/></g><g id="f"><use transform="matrix(0.04938271604938272,0,0,0.04938271604938272,0,0)" xlink:href="#C"/><use transform="matrix(0.04938271604938272,0,0,0.04938271604938272,11.851851851851853,0)" xlink:href="#y"/><use transform="matrix(0.04938271604938272,0,0,0.04938271604938272,21.7283950617284,0)" xlink:href="#F"/><use transform="matrix(0.04938271604938272,0,0,0.04938271604938272,28.64197530864198,0)" xlink:href="#I"/><use transform="matrix(0.04938271604938272,0,0,0.04938271604938272,38.518518518518526,0)" xlink:href="#y"/></g><path fill="#333" d="M230 0l2-204L168 0h-37L68-204 70 0H24v-248h70l56 185 57-185h69V0h-46" id="J"/><path fill="#333" d="M135-194c53 0 70 44 70 98 0 56-19 98-73 100-31 1-45-17-59-34 3 33 2 69 2 105H25l-1-265h48c2 10 0 23 3 31 11-24 29-35 60-35zM114-30c33 0 39-31 40-66 0-38-9-64-40-64-56 0-55 130 0 130" id="K"/><path fill="#333" d="M199 0l-22-63H83L61 0H9l90-248h61L250 0h-51zm-33-102l-36-108c-10 38-24 72-36 108h72" id="L"/><path fill="#333" d="M88-194c31-1 46 15 58 34l-1-101h50l1 261h-48c-2-10 0-23-3-31C134-8 116 4 84 4 32 4 16-41 15-95c0-56 19-97 73-99zm17 164c33 0 40-30 41-66 1-37-9-64-41-64s-38 30-39 65c0 43 13 65 39 65" id="M"/><g id="g"><use transform="matrix(0.04938271604938272,0,0,0.04938271604938272,0,0)" xlink:href="#J"/><use transform="matrix(0.04938271604938272,0,0,0.04938271604938272,14.765432098765434,0)" xlink:href="#G"/><use transform="matrix(0.04938271604938272,0,0,0.04938271604938272,24.641975308641978,0)" xlink:href="#K"/><use transform="matrix(0.04938271604938272,0,0,0.04938271604938272,35.45679012345679,0)" xlink:href="#L"/><use transform="matrix(0.04938271604938272,0,0,0.04938271604938272,48.24691358024692,0)" xlink:href="#M"/><use transform="matrix(0.04938271604938272,0,0,0.04938271604938272,59.061728395061735,0)" xlink:href="#M"/></g><g id="h"><use transform="matrix(0.04938271604938272,0,0,0.04938271604938272,0,0)" xlink:href="#G"/><use transform="matrix(0.04938271604938272,0,0,0.04938271604938272,9.876543209876544,0)" xlink:href="#M"/><use transform="matrix(0.04938271604938272,0,0,0.04938271604938272,20.69135802469136,0)" xlink:href="#M"/></g><path fill="#333" d="M67-125c0 54 23 88 75 88 28 0 53-7 68-21v-34h-60v-39h108v91C232-14 192 4 140 4 58 4 20-42 15-125 8-236 126-280 215-234c19 10 29 26 37 47l-47 15c-11-23-29-39-63-39-53 1-75 33-75 86" id="N"/><g id="i"><use transform="matrix(0.04938271604938272,0,0,0.04938271604938272,0,0)" xlink:href="#J"/><use transform="matrix(0.04938271604938272,0,0,0.04938271604938272,14.765432098765434,0)" xlink:href="#G"/><use transform="matrix(0.04938271604938272,0,0,0.04938271604938272,24.641975308641978,0)" xlink:href="#K"/><use transform="matrix(0.04938271604938272,0,0,0.04938271604938272,35.45679012345679,0)" xlink:href="#N"/><use transform="matrix(0.04938271604938272,0,0,0.04938271604938272,49.28395061728395,0)" xlink:href="#y"/><use transform="matrix(0.04938271604938272,0,0,0.04938271604938272,59.1604938271605,0)" xlink:href="#D"/></g><path fill="#333" d="M25 0v-261h50V0H25" id="O"/><path fill="#333" d="M147 0L96-86 75-71V0H25v-261h50v150l67-79h53l-66 74L201 0h-54" id="P"/><path fill="#333" d="M85 4C-2 5 27-109 22-190h50c7 57-23 150 33 157 60-5 35-97 40-157h50l1 190h-47c-2-12 1-28-3-38-12 25-28 42-61 42" id="Q"/><g id="j"><use transform="matrix(0.04938271604938272,0,0,0.04938271604938272,0,0)" xlink:href="#O"/><use transform="matrix(0.04938271604938272,0,0,0.04938271604938272,4.938271604938272,0)" xlink:href="#E"/><use transform="matrix(0.04938271604938272,0,0,0.04938271604938272,15.753086419753087,0)" xlink:href="#E"/><use transform="matrix(0.04938271604938272,0,0,0.04938271604938272,26.567901234567902,0)" xlink:href="#P"/><use transform="matrix(0.04938271604938272,0,0,0.04938271604938272,36.44444444444444,0)" xlink:href="#Q"/><use transform="matrix(0.04938271604938272,0,0,0.04938271604938272,47.25925925925926,0)" xlink:href="#K"/></g></defs></g></svg>